{
  "title": "Muck 2015 UNRATED HDRIP x264 AC3 TiTAN",
  "uid": 11738745,
  "size": 1268937699,
  "categoryP": "video",
  "categoryS": "movies",
  "magnet": "?xt=urn:btih:0c6ea7c201a88e450b59eed4b606c20663958932&amp;dn=Muck+2015+UNRATED+HDRIP+x264+AC3+TiTAN&amp;tr=udp%3A%2F%2Ftracker.openbittorrent.com%3A80&amp;tr=udp%3A%2F%2Fopen.demonii.com%3A1337&amp;tr=udp%3A%2F%2Ftracker.coppersurfer.tk%3A6969&amp;tr=udp%3A%2F%2Fexodus.desync.com%3A6969",
  "seeders": 40,
  "leechers": 2,
  "uploader": "xxxlavalxxx",
  "files": 3,
  "time": 1425666255,
  "description": " &lt;a href=&quot;http://www.imdb.com/title/tt2207484/&quot; rel=&quot;nofollow&quot; target=&quot;_NEW&quot;&gt;http://www.imdb.com/title/tt2207484/&lt;/a&gt;\n\nAfter narrowly escaping an ancient burial ground, a group of friends find themselves trapped between two evils, forcing them to fight, die, or go back the way they came.\nDirector: Steve Wolsh\nWriter: Steve Wolsh\nStars: Kane Hodder, Lachlan Buchanan, Jaclyn Swedberg \nGenres: Horror\nCountry: USA\nLanguage: English\n\nSource: Itunes\n\nGeneral\n\nFormat                                   : Matroska\nFormat version                           : Version 2\nFile size                                : 1.18 GiB\nDuration                                 : 1h 38mn\nOverall bit rate mode                    : Variable\nOverall bit rate                         : 1 717 Kbps\nEncoded date                             : UTC 2015-03-06 16:40:55\n\nVideo\nID                                       : 1\nFormat                                   : AVC\nFormat/Info                              : Advanced Video Codec\nFormat profile                           : &lt;a class=&quot;__cf_email__&quot; href=&quot;/cdn-cgi/l/email-protection&quot; data-cfemail=&quot;024a6b656a424e362c33&quot;&gt;[email&amp;#160;protected]&lt;/a&gt;&lt;script cf-hash='f9e31' type=&quot;text/javascript&quot;&gt;\n/* &lt;![CDATA[ */!function(){try{var t=&quot;currentScript&quot;in document?document.currentScript:function(){for(var t=document.getElementsByTagName(&quot;script&quot;),e=t.length;e--;)if(t[e].getAttribute(&quot;cf-hash&quot;))return t[e]}();if(t&amp;&amp;t.previousSibling){var e,r,n,i,c=t.previousSibling,a=c.getAttribute(&quot;data-cfemail&quot;);if(a){for(e=&quot;&quot;,r=parseInt(a.substr(0,2),16),n=2;a.length-n;n+=2)i=parseInt(a.substr(n,2),16)^r,e+=String.fromCharCode(i);e=document.createTextNode(e),c.parentNode.replaceChild(e,c)}}}catch(u){}}();/* ]]&gt; */&lt;/script&gt;\nFormat settings, CABAC                   : Yes\nFormat settings, ReFrames                : 3 frames\nCodec ID                                 : V_MPEG4/ISO/AVC\nDuration                                 : 1h 38mn\nBit rate mode                            : Variable\nBit rate                                 : 1 299 Kbps\nMaximum bit rate                         : 40.0 Mbps\nWidth                                    : 720 pixels\nHeight                                   : 384 pixels\nDisplay aspect ratio                     : 1.85:1\nFrame rate mode                          : Constant\nFrame rate                               : 23.976 fps\nColor space                              : YUV\nChroma subsampling                       : 4:2:0\nBit depth                                : 8 bits\nScan type                                : Progressive\nBits/(Pixel*Frame)                       : 0.196\nStream size                              : 915 MiB (76%)\nDefault                                  : Yes\nForced                                   : No\nColor primaries                          : BT.709\nTransfer characteristics                 : BT.709\nMatrix coefficients                      : BT.709\n\nAudio\nID                                       : 2\nFormat                                   : AC-3\nFormat/Info                              : Audio Coding 3\nMode extension                           : CM (complete main)\nFormat settings, Endianness              : Big\nCodec ID                                 : A_AC3\nDuration                                 : 1h 38mn\nBit rate mode                            : Constant\nBit rate                                 : 384 Kbps\nChannel(s)                               : 6 channels\nChannel positions                        : Front: L C R, Side: L R, LFE\nSampling rate                            : 48.0 KHz\nBit depth                                : 16 bits\nCompression mode                         : Lossy\nStream size                              : 271 MiB (22%)\nLanguage                                 : English\nDefault                                  : Yes\nForced                                   : No\n &lt;a href=&quot;\nhttp://i.imgur.com/qKaXxRm.jpg&quot; rel=&quot;nofollow&quot; target=&quot;_NEW&quot;&gt;\nhttp://i.imgur.com/qKaXxRm.jpg&lt;/a&gt; &lt;a href=&quot;\nhttp://i.imgur.com/UPONHfE.jpg&quot; rel=&quot;nofollow&quot; target=&quot;_NEW&quot;&gt;\nhttp://i.imgur.com/UPONHfE.jpg&lt;/a&gt; &lt;a href=&quot;\nhttp://i.imgur.com/sGSnT7b.jpg&quot; rel=&quot;nofollow&quot; target=&quot;_NEW&quot;&gt;\nhttp://i.imgur.com/sGSnT7b.jpg&lt;/a&gt; &lt;a href=&quot;\nhttp://i.imgur.com/0Ua0U6F.jpg&quot; rel=&quot;nofollow&quot; target=&quot;_NEW&quot;&gt;\nhttp://i.imgur.com/0Ua0U6F.jpg&lt;/a&gt; &lt;a href=&quot;\nhttp://i.imgur.com/gfj1AdS.jpg&quot; rel=&quot;nofollow&quot; target=&quot;_NEW&quot;&gt;\nhttp://i.imgur.com/gfj1AdS.jpg&lt;/a&gt; &lt;a href=&quot;\nhttp://i.imgur.com/jQAD7p5.jpg&quot; rel=&quot;nofollow&quot; target=&quot;_NEW&quot;&gt;\nhttp://i.imgur.com/jQAD7p5.jpg&lt;/a&gt; &lt;a href=&quot;\nhttp://i.imgur.com/2Be0kyZ.jpg&quot; rel=&quot;nofollow&quot; target=&quot;_NEW&quot;&gt;\nhttp://i.imgur.com/2Be0kyZ.jpg&lt;/a&gt; &lt;a href=&quot;\nhttp://i.imgur.com/xgqVDVZ.jpg&quot; rel=&quot;nofollow&quot; target=&quot;_NEW&quot;&gt;\nhttp://i.imgur.com/xgqVDVZ.jpg&lt;/a&gt;",
  "parsed": {
    "xt": "urn:btih:0c6ea7c201a88e450b59eed4b606c20663958932",
    "dn": "Muck 2015 UNRATED HDRIP x264 AC3 TiTAN",
    "tr": [
      "udp://exodus.desync.com:6969",
      "udp://open.demonii.com:1337",
      "udp://tracker.coppersurfer.tk:6969",
      "udp://tracker.openbittorrent.com:80"
    ],
    "infoHash": "0c6ea7c201a88e450b59eed4b606c20663958932",
    "infoHashBuffer": {
      "type": "Buffer",
      "data": [
        12,
        110,
        167,
        194,
        1,
        168,
        142,
        69,
        11,
        89,
        238,
        212,
        182,
        6,
        194,
        6,
        99,
        149,
        137,
        50
      ]
    },
    "name": "Muck 2015 UNRATED HDRIP x264 AC3 TiTAN",
    "announce": [
      "udp://exodus.desync.com:6969",
      "udp://open.demonii.com:1337",
      "udp://tracker.coppersurfer.tk:6969",
      "udp://tracker.openbittorrent.com:80"
    ],
    "urlList": []
  },
  "previous": 42,
  "peers": 30,
  "last_updated": "2016-12-24T16:50:11.944Z"
}